# xmcd
#
# Track frame offsets: 
#        150
#        14932
#        29900
#        47607
#        56610
#        72978
#        88284
#        103816
#        114016
#        130668
#        148271
#
# Disc length: 2213 seconds
#
# Revision: 0
# Processed by: cddbd v1.5.2PL0 Copyright (c) Steve Scherf et al.
# Submitted via: ExactAudioCopy v0.95b4
#
DISCID=a608a30b
DTITLE=HomeBrew - HomeBrew
DYEAR=2006
DGENRE=Blues
TTITLE0=Wait On Time (K Wilson)
TTITLE1=Leavin' Home (HomeBrew)
TTITLE2=Help Me Babe (W Dixon)
TTITLE3=Diamonds At Her Feet (M Morganfield)
TTITLE4=Flip Flop fly (J Turner)
TTITLE5=Cross Cut Saw (A King)
TTITLE6=Born in Chicago (Gravenites)
TTITLE7=32/20 (R Johnson)
TTITLE8=Down Town Saturday Night (Blues 'n Trouble)
TTITLE9=How Long (Home Brew)
TTITLE10=Got My Mogo Working ( M Morganfield)
EXTD=
EXTT0=
EXTT1=
EXTT2=
EXTT3=
EXTT4=
EXTT5=
EXTT6=
EXTT7=
EXTT8=
EXTT9=
EXTT10=
PLAYORDER=
